<svg width="50" height="50" viewBox="0 0 50 50" fill="none" xmlns="http://www.w3.org/2000/svg">
<path d="M15.7234 25.9692H18.0625V31.4196C18.0625 32.6914 18.7514 32.9487 19.5916 31.9949L25.3221 25.4848C26.0261 24.6899 25.7309 24.0313 24.6635 24.0313H22.3244V18.581C22.3244 17.3092 21.6355 17.0519 20.7952 18.0057L15.0648 24.5158C14.3684 25.3182 14.6636 25.9692 15.7234 25.9692Z" fill="white" stroke="white" stroke-width="0.5" stroke-miterlimit="10" stroke-linecap="round" stroke-linejoin="round"/>
<path d="M17.3015 6.10636C16.7368 6.10636 16.4545 6.10636 16.252 6.24252C16.1662 6.30025 16.0923 6.37408 16.0346 6.45992C15.8984 6.66238 15.8984 6.94472 15.8984 7.50941C15.8984 7.79176 15.8984 7.93293 15.9665 8.03416C15.9954 8.07708 16.0323 8.11399 16.0752 8.14286C16.1764 8.21094 16.3176 8.21094 16.6 8.21094L24.0396 8.21094C24.3219 8.21094 24.4631 8.21094 24.5643 8.14286C24.6072 8.11399 24.6441 8.07708 24.673 8.03416C24.7411 7.93293 24.7411 7.79176 24.7411 7.50941C24.7411 6.94472 24.7411 6.66238 24.6049 6.45992C24.5472 6.37408 24.4734 6.30025 24.3875 6.24252C24.1851 6.10636 23.9027 6.10636 23.338 6.10636L17.3015 6.10636Z" fill="white"/>
<path d="M7.86328 38.6003C7.86328 40.6253 9.5049 42.2669 11.5299 42.2669H24.8935C24.7135 41.8357 24.5601 41.3906 24.4354 40.9336H11.5299C10.2413 40.9336 9.19662 39.8889 9.19662 38.6003L9.19661 12.6003C9.19661 11.3116 10.2413 10.2669 11.5299 10.2669L28.8633 10.2669C30.1519 10.2669 31.1966 11.3116 31.1966 12.6003V27.7213C31.6288 27.5596 32.0739 27.4243 32.5299 27.3174V12.6003C32.5299 10.5752 30.8883 8.93359 28.8633 8.93359L11.5299 8.93359C9.5049 8.93359 7.86328 10.5752 7.86328 12.6003V38.6003Z" fill="white"/>
<path fill-rule="evenodd" clip-rule="evenodd" d="M44.7227 38.0293C44.7227 43.3702 40.3937 47.6992 35.0527 47.6992C29.7118 47.6992 25.3828 43.3702 25.3828 38.0293C25.3828 32.6884 29.7118 28.3594 35.0527 28.3594C40.3937 28.3594 44.7227 32.6884 44.7227 38.0293Z" stroke="white" stroke-width="1.33333"/>
<path d="M38.6404 41.1076L34.6992 38.7565V33.6895" stroke="#88D3EC" stroke-width="1.33333"/>
</svg>
