<svg width="50" height="50" viewBox="0 0 50 50" fill="none" xmlns="http://www.w3.org/2000/svg">
<path d="M15.7234 25.9692H18.0625V31.4196C18.0625 32.6914 18.7514 32.9487 19.5916 31.9949L25.3221 25.4848C26.0261 24.6899 25.7309 24.0313 24.6635 24.0313H22.3244V18.581C22.3244 17.3092 21.6355 17.0519 20.7952 18.0057L15.0648 24.5158C14.3684 25.3182 14.6636 25.9692 15.7234 25.9692Z" fill="white" stroke="white" stroke-width="0.5" stroke-miterlimit="10" stroke-linecap="round" stroke-linejoin="round"/>
<path d="M17.3015 6.10636C16.7368 6.10636 16.4545 6.10636 16.252 6.24252C16.1662 6.30025 16.0923 6.37408 16.0346 6.45992C15.8984 6.66238 15.8984 6.94472 15.8984 7.50941C15.8984 7.79176 15.8984 7.93293 15.9665 8.03416C15.9954 8.07708 16.0323 8.11399 16.0752 8.14286C16.1764 8.21094 16.3176 8.21094 16.6 8.21094L24.0396 8.21094C24.3219 8.21094 24.4631 8.21094 24.5643 8.14286C24.6072 8.11399 24.6441 8.07708 24.673 8.03416C24.7411 7.93293 24.7411 7.79176 24.7411 7.50941C24.7411 6.94472 24.7411 6.66238 24.6049 6.45992C24.5472 6.37408 24.4734 6.30025 24.3875 6.24252C24.1851 6.10636 23.9027 6.10636 23.338 6.10636L17.3015 6.10636Z" fill="white"/>
<path d="M7.86328 38.6003C7.86328 40.6253 9.5049 42.2669 11.5299 42.2669H25.6298C25.4303 41.8326 25.2546 41.3874 25.1045 40.9336H11.5299C10.2413 40.9336 9.19662 39.8889 9.19662 38.6003L9.19661 12.6003C9.19661 11.3116 10.2413 10.2669 11.53 10.2669L28.8633 10.2669C30.1519 10.2669 31.1966 11.3116 31.1966 12.6003V27.3734L32.5081 26.8365C32.5154 26.8336 32.5227 26.8306 32.5299 26.8277V12.6003C32.5299 10.5752 30.8883 8.93359 28.8633 8.93359L11.53 8.93359C9.50491 8.93359 7.86328 10.5752 7.86328 12.6003V38.6003Z" fill="white"/>
<path d="M44.2448 37.1014C44.2448 42.1594 40.5729 46.8968 35.5562 48.2828C35.2149 48.3759 34.8425 48.3759 34.5011 48.2828C29.4845 46.8968 25.8125 42.1594 25.8125 37.1014V32.5605C25.8125 31.7123 26.4538 30.7504 27.2503 30.4297L33.0116 28.0714C34.3046 27.5439 35.7631 27.5439 37.056 28.0714L42.8174 30.4297C43.6035 30.7504 44.2552 31.7123 44.2552 32.5605L44.2448 37.1014Z" stroke="white" stroke-width="1.33333"/>
<path d="M30.3477 37.3138L33.5238 40.3871L39.7156 34.1953" stroke="#88D3EC" stroke-width="1.33333"/>
</svg>
