<svg width="50" height="50" viewBox="0 0 50 50" fill="none" xmlns="http://www.w3.org/2000/svg">
<path d="M19.0293 7.23535C19.8254 5.48999 21.7876 4.52313 23.7021 5.03613L28.8535 6.41602C30.768 6.92901 31.9839 8.74769 31.8008 10.6572L35.3955 11.6201C35.751 11.7154 35.9623 12.081 35.8672 12.4365C35.7719 12.7922 35.4055 13.0035 35.0498 12.9082L31.4561 11.9453C30.6598 13.6903 28.6975 14.6564 26.7832 14.1436L21.6318 12.7637C19.7175 12.2507 18.5007 10.4319 18.6836 8.52246L15.0879 7.55957C14.7324 7.46431 14.5211 7.0987 14.6162 6.74316C14.7115 6.38754 15.077 6.17624 15.4326 6.27148L19.0293 7.23535ZM23.3564 6.32324C21.9339 5.94218 20.472 6.78647 20.0908 8.20898C19.7097 9.63152 20.554 11.0934 21.9766 11.4746L27.1279 12.8555C28.5504 13.2365 30.0123 12.3921 30.3936 10.9697C30.7747 9.54715 29.9304 8.0843 28.5078 7.70312L23.3564 6.32324Z" fill="white"/>
<rect x="21.4922" y="6.85938" width="8.66667" height="3.33333" rx="1.66667" transform="rotate(15 21.4922 6.85938)" fill="white"/>
<path d="M19.0147 30.4167C20.37 30.7798 21.1744 32.1729 20.8112 33.5282L18.472 42.2584C18.1088 43.6137 16.7157 44.418 15.3604 44.0549C14.0051 43.6917 13.2008 42.2986 13.5639 40.9433L15.9032 32.2131C16.2663 30.8578 17.6594 30.0535 19.0147 30.4167Z" fill="white"/>
<path d="M23.3555 38.0469C23.4333 38.4903 23.5407 38.9233 23.6768 39.3438C23.5554 39.3813 23.4296 39.4223 23.2979 39.4629L23.0078 39.5527C22.1545 39.8154 21.7276 39.9469 21.2871 39.9551C20.9755 39.9608 20.6682 39.9042 20.21 39.7891L20.5547 38.5C20.9604 38.6014 21.1149 38.6248 21.2627 38.6221C21.472 38.6182 21.6926 38.5626 22.6162 38.2783L22.9053 38.1885C23.0664 38.1389 23.2156 38.0904 23.3555 38.0469ZM19.9922 13.0518C20.8591 13.01 21.7353 13.2444 23.4873 13.7139C25.2398 14.1834 26.1167 14.4189 26.8467 14.8887C27.9279 15.5846 28.8122 16.7678 29.1729 18.002C29.4163 18.8352 29.3942 19.6807 29.3506 21.3711C29.3003 23.3188 29.1944 25.4158 28.9844 27.1387C28.9685 27.2691 28.9477 27.401 28.9297 27.5352C28.4157 27.7653 27.9246 28.037 27.4629 28.3496C27.5389 27.8736 27.6079 27.4129 27.6611 26.9766C27.8634 25.3165 27.9677 23.2697 28.0176 21.3369C28.0632 19.57 28.0646 18.9647 27.8926 18.376C27.622 17.4499 26.9363 16.5319 26.125 16.0098C25.6113 15.6792 24.9785 15.4939 23.1426 15.002C21.3067 14.51 20.6658 14.3543 20.0557 14.3838C19.0921 14.4304 18.0391 14.8822 17.3418 15.5488C16.8985 15.9727 16.5969 16.4977 15.7529 18.0508C14.8297 19.7496 13.897 21.5745 13.2422 23.1133C12.3055 25.3146 11.3405 28.3338 10.6514 30.6484C10.1421 32.3587 10.0673 32.75 10.1572 33.1348C10.1951 33.2966 10.2755 33.4842 10.5186 33.8047C10.781 34.1508 11.1603 34.5611 11.7549 35.2012L11.9609 35.4229C12.6189 36.1311 12.7815 36.2894 12.9609 36.3975C13.0875 36.4737 13.2326 36.5305 13.6348 36.6455L13.2891 37.9346C12.8346 37.8052 12.5404 37.7008 12.2734 37.54C11.8959 37.3127 11.5914 36.9846 10.9834 36.3301L10.7773 36.1084C9.62386 34.8667 9.0472 34.2453 8.8584 33.4375C8.66975 32.6298 8.90417 31.8423 9.37305 30.2676C10.064 27.9471 11.0465 24.8671 12.0146 22.5918C12.6942 20.9948 13.6507 19.1259 14.5811 17.4141C15.3886 15.9282 15.7925 15.1849 16.4199 14.585C17.3494 13.6962 18.7077 13.1137 19.9922 13.0518Z" fill="white"/>
<path d="M28.5703 35.2676H36.8121L34.5496 32.1426" stroke="#88D3EC" stroke-width="1.07143"/>
<path d="M37.5 37.9453H29.2582L31.5207 41.0703" stroke="#88D3EC" stroke-width="1.07143"/>
<path d="M32.876 26.0273C38.5847 26.0274 43.2129 30.6555 43.2129 36.3643C43.2128 42.073 38.5847 46.7011 32.876 46.7012C27.1672 46.7012 22.5391 42.073 22.5391 36.3643C22.5391 30.6554 27.1671 26.0273 32.876 26.0273ZM32.876 27.3604C27.9035 27.3604 23.8721 31.3918 23.8721 36.3643C23.8722 41.3366 27.9036 45.3672 32.876 45.3672C37.8483 45.3671 41.8788 41.3366 41.8789 36.3643C41.8789 31.3919 37.8484 27.3604 32.876 27.3604Z" fill="white"/>
</svg>
